Gallery: 
 
http://imagedomino.com/?g=298222

Studio
Digital Playground
Starring
Alexis Texas, Nicole Ray, Kristina Rose, Riley Steele, Codi Carmichael
Genre
Gonzo, All Sex, POV
Description
With its unique camera work, "Jack's POV 14" brings you into the action and doesn't loosen its grip until you're completely drained. "Jack's POV 14", starring Digital Playground's beautiful contract girl Riley Steele gives you the best action, the most delicious teases, and pure in-your-face comedy. It's your job to cast sexy, young women like Riley Steele in music videos, resulting in you nailing gorgeous ass after even more succulent pussy. Let Jack's camera tease and tempt you, offering the finest bush on the planet, all in first hand perspective.

Duration                         : 1h 2mn
Bit rate                         : 1 440 Kbps
Width                            : 624 pixels
Height                           : 352 pixels
Display aspect ratio             : 16:9
Frame rate                       : 29.970 fps
Color space                      : YUV
Chroma subsampling               : 4:2:0
Bit depth                        : 8 bits
Scan type                        : Progressive
Compression mode                 : Lossy
Bits/(Pixel*Frame)               : 0.219
Stream size                      : 640 MiB (91%)

Duration                         : 1h 17mn
Bit rate                         : 1 126 Kbps
Width                            : 624 pixels
Height                           : 352 pixels
Display aspect ratio             : 16:9
Frame rate                       : 29.970 fps
Color space                      : YUV
Chroma subsampling               : 4:2:0
Bit depth                        : 8 bits
Scan type                        : Progressive
Compression mode                 : Lossy
Bits/(Pixel*Frame)               : 0.171
Stream size                      : 624 MiB (89%)